<?xml version="1.0" encoding="utf-8"?>
<!-- Generator: Adobe Illustrator 26.0.3, SVG Export Plug-In . SVG Version: 6.00 Build 0)  -->
<svg version="1.1" id="Layer_1" xmlns="http://www.w3.org/2000/svg" xmlns:xlink="http://www.w3.org/1999/xlink" x="0px" y="0px"
	 viewBox="0 0 1000 1000" style="enable-background:new 0 0 1000 1000;" xml:space="preserve">
<style type="text/css">
	.st0{opacity:0.9;enable-background:new    ;}
	.st1{fill:#B42E34;enable-background:new    ;}
	.st2{fill:#B42E34;}
	.st3{opacity:0.9;fill:#E01A83;enable-background:new    ;}
	.st4{opacity:0.9;fill:#B42E34;enable-background:new    ;}
	.st5{fill:#F3C242;}
	.st6{fill:#D5A84E;}
	.st7{fill:#EB4B34;}
	.st8{fill:#EA7039;}
</style>
<g class="st0">
	<g id="Layer_1_00000056419218957098421270000005940063089513653919_">
		
			<rect x="-480.2" y="1513.2" transform="matrix(0.5 -0.866 0.866 0.5 -1401.2072 752.4803)" class="st1" width="862.5" height="153.1"/>
		<rect x="-125.1" y="1158.5" class="st1" width="152.3" height="862.4"/>
		
			<rect x="-124.2" y="1155.3" transform="matrix(0.4983 -0.867 0.867 0.4983 -1400.524 755.806)" class="st2" width="154" height="865.5"/>
		
			<rect x="-125.5" y="1158.5" transform="matrix(0.866 -0.5 0.5 0.866 -801.4163 188.518)" class="st2" width="153.2" height="862.5"/>
		
			<rect x="-480.2" y="1513.6" transform="matrix(0.866 -0.5 0.5 0.866 -801.4149 188.5191)" class="st2" width="862.5" height="152.1"/>
		<rect x="-480.2" y="1514.2" class="st2" width="862.5" height="150.9"/>
	</g>
</g>
<g>
	<g id="Layer_1_00000049187013045111278050000001537782621222178459_">
		
			<rect x="68.8" y="423.4" transform="matrix(0.5 -0.866 0.866 0.5 -183.0169 683.0106)" class="st3" width="862.5" height="153.1"/>
		<rect x="423.9" y="68.8" class="st4" width="152.3" height="862.4"/>
		
			<rect x="424.7" y="65.6" transform="matrix(0.4983 -0.867 0.867 0.4983 -180.3145 685.0089)" class="st5" width="154" height="865.5"/>
		
			<rect x="423.4" y="68.8" transform="matrix(0.866 -0.5 0.5 0.866 -183.0139 316.9897)" class="st6" width="153.2" height="862.5"/>
		
			<rect x="68.8" y="423.9" transform="matrix(0.866 -0.5 0.5 0.866 -183.0125 316.9908)" class="st7" width="862.5" height="152.1"/>
		<rect x="68.8" y="424.5" class="st8" width="862.5" height="150.9"/>
	</g>
</g>
</svg>
